# xmcd
#
# Track frame offsets:
#	150
#	20978
#	45578
#	63783
#	81938
#	104373
#	122625
#	142823
#	162830
#	182283
#	200373
#	219875
#	241573
#	259470
#
# Disc length: 3699
#
# Revision: 1
# Processed by: cddbd v1.5.1PL0 Copyright (c) Steve Scherf et al.
# Submitted via: audiograbber 1.81.02
# Normalized: r0:DSETVAR2
#
DISCID=b40e710e
DTITLE=Various Artist - Hot Hits R&B Vol 17
DYEAR=1992
DGENRE=R&B
TTITLE0=Bell Biv Devoe - Gangsta
TTITLE1=Chuck II Booker - Games
TTITLE2=Shai - If Ever I Fall In Love
TTITLE3=TLC - What About Your Friends
TTITLE4=Toni Braxton - Love Shoulda Brought You Home
TTITLE5=Patti LaBelle - All Right Now
TTITLE6=George Duke - No  Rhytme No Reason
TTITLE7=Keith Sweat - I Want To Love You Down
TTITLE8=Lo-Key - I Got A Thang 4 Ya
TTITLE9=Stephanie Mills - All Day All Night
TTITLE10=Christopher Williams - All I See
TTITLE11=CeCe Peniston - Inside That I Cried
TTITLE12=Portrait - Here We Go Again
TTITLE13=Shabba Ranks - Slow and Sexy
EXTD=
EXTT0=
EXTT1=
EXTT2=
EXTT3=
EXTT4=
EXTT5=
EXTT6=
EXTT7=
EXTT8=
EXTT9=
EXTT10=
EXTT11=
EXTT12=
EXTT13=
PLAYORDER=
